<?xml version="1.0" encoding="utf-8"?>
<!-- Generator: Adobe Illustrator 20.0.0, SVG Export Plug-In . SVG Version: 6.00 Build 0)  -->
<svg version="1.1" id="Layer_1" xmlns="http://www.w3.org/2000/svg" xmlns:xlink="http://www.w3.org/1999/xlink" x="0px" y="0px"
	 viewBox="0 0 128 128" style="enable-background:new 0 0 128 128;" xml:space="preserve">
<style type="text/css">
	.st0{fill:none;stroke:#ffcc00;stroke-width:4.2905;stroke-miterlimit:10;}
</style>
<path class="st0" d="M40,36.9c17.3,1.8,4.6,24.3,0.6,18.3c-3.9-6-13,5.9-7.8,13.8s-2.4,21.3,8,37.2s42.6,11.4,63.3,18.5
	c20.6,7-22.1-33.3-32.6-49.3c-10.4-16.1,5.8-24.7-2.9-38C60,24,67.4,62.6,53.8,71.4c-13.6,8.9,14.5-44,1.9-63.3
	C49-2.3,31.5,3.2,27.3,13.2C23.7,21.6,32.1,36.1,40,36.9z"/>
</svg>
