<?xml version="1.0" encoding="utf-8"?>
<!-- Generator: Adobe Illustrator 20.0.0, SVG Export Plug-In . SVG Version: 6.00 Build 0)  -->
<svg version="1.1" id="Layer_1" xmlns="http://www.w3.org/2000/svg" xmlns:xlink="http://www.w3.org/1999/xlink" x="0px" y="0px"
	 viewBox="0 0 128 128" style="enable-background:new 0 0 128 128;" xml:space="preserve">
<g id="G_2_">
	<path d="M64,0c-2.6,0-4.7,2.1-4.7,4.7v54.7H4.7C2.1,59.3,0,61.4,0,64c0,2.6,2.1,4.7,4.7,4.7h54.7v54.7c0,2.6,2.1,4.7,4.7,4.7
		s4.7-2.1,4.7-4.7V4.7C68.7,2.1,66.6,0,64,0z"/>
	<path d="M123.3,59.3H73.6v9.3h49.7c2.6,0,4.7-2.1,4.7-4.7C128,61.4,125.9,59.3,123.3,59.3z"/>
</g>
</svg>
