<?xml version="1.0" encoding="utf-8"?>
<!-- Generator: Adobe Illustrator 20.0.0, SVG Export Plug-In . SVG Version: 6.00 Build 0)  -->
<svg version="1.1" id="Layer_1" xmlns="http://www.w3.org/2000/svg" xmlns:xlink="http://www.w3.org/1999/xlink" x="0px" y="0px"
	 viewBox="0 0 128 128" style="enable-background:new 0 0 128 128;" xml:space="preserve">
<style type="text/css">path{fill:#e91c23;}</style>
<g id="O_2_">
	<path d="M43.6,30c-0.3-0.5-0.8-0.8-1.4-0.9l-15.9-0.4L12.8,20c-0.5-0.3-1.1-0.3-1.6-0.1c-0.5,0.3-0.8,0.8-0.8,1.4l0,15.8L1.7,50.4
		c-0.3,0.5-0.3,1.1-0.1,1.6c0.3,0.5,0.8,0.8,1.4,0.9l16,0.2l13.5,8.6c0.1,0.1,0.3,0.1,0.4,0.2c0.1,0,0.3,0.1,0.5,0.1
		c0.3,0,0.5-0.1,0.8-0.2c0.5-0.3,0.8-0.8,0.8-1.4l0-15.8l8.4-12.9C43.8,31.1,43.8,30.5,43.6,30z"/>
</g>
<g id="O_3_">
	<path d="M85.2,30c-0.3-0.5-0.8-0.8-1.4-0.9l-15.9-0.4L54.4,20c-0.5-0.3-1.1-0.3-1.6-0.1c-0.5,0.3-0.8,0.8-0.8,1.4l0,15.8l-8.6,13.2
		C43,50.8,43,51.5,43.3,52c0.3,0.5,0.8,0.8,1.4,0.9l16,0.2l13.5,8.6c0.1,0.1,0.3,0.1,0.4,0.2c0.1,0,0.3,0.1,0.5,0.1
		c0.3,0,0.5-0.1,0.8-0.2c0.5-0.3,0.8-0.8,0.8-1.4l0-15.8l8.4-12.9C85.5,31.1,85.5,30.5,85.2,30z"/>
</g>
<g id="O_6_">
	<path d="M126.9,30c-0.3-0.5-0.8-0.8-1.4-0.9l-15.9-0.4L96.1,20c-0.5-0.3-1.1-0.3-1.6-0.1c-0.5,0.3-0.8,0.8-0.8,1.4l0,15.8L85,50.4
		c-0.3,0.5-0.3,1.1-0.1,1.6c0.3,0.5,0.8,0.8,1.4,0.9l16,0.2l13.5,8.6c0.1,0.1,0.3,0.1,0.4,0.2c0.1,0,0.3,0.1,0.5,0.1
		c0.3,0,0.5-0.1,0.8-0.2c0.5-0.3,0.8-0.8,0.8-1.4l0-15.8l8.4-12.9C127.1,31.1,127.1,30.5,126.9,30z"/>
</g>
<g id="O_10_">
	<path d="M64.2,75.2c-0.3-0.5-0.8-0.8-1.4-0.9l-15.9-0.4l-13.5-8.7c-0.5-0.3-1.1-0.3-1.6-0.1c-0.5,0.3-0.8,0.8-0.8,1.4l0,15.8
		l-8.6,13.2c-0.3,0.5-0.3,1.1-0.1,1.6c0.3,0.5,0.8,0.8,1.4,0.9l16,0.2l13.5,8.6c0.1,0.1,0.3,0.1,0.4,0.2c0.1,0,0.3,0.1,0.5,0.1
		c0.3,0,0.5-0.1,0.8-0.2c0.5-0.3,0.8-0.8,0.8-1.4l0-15.8l8.4-12.9C64.4,76.3,64.4,75.7,64.2,75.2z"/>
</g>
<g id="O_4_">
	<path d="M75.5,69.1l11.4,7.3l0.7,0.5l0.8,0l13.4,0.3l-7.1,10.8l-0.5,0.7l0,0.9l0,13.2l-11.4-7.3l-0.7-0.5l-0.9,0l-13.5-0.1L75,84
		l0.5-0.7l0-0.9L75.5,69.1 M74.1,65c-0.3,0-0.5,0.1-0.8,0.2c-0.5,0.3-0.8,0.8-0.8,1.4l0,15.8l-8.6,13.2c-0.3,0.5-0.3,1.1-0.1,1.6
		c0.3,0.5,0.8,0.8,1.4,0.9l16,0.2l13.5,8.6c0.1,0.1,0.3,0.1,0.4,0.2c0.1,0,0.3,0.1,0.5,0.1c0.3,0,0.5-0.1,0.8-0.2
		c0.5-0.3,0.8-0.8,0.8-1.4l0-15.8l8.4-12.9c0.3-0.5,0.3-1.1,0.1-1.6c-0.3-0.5-0.8-0.8-1.4-0.9l-15.9-0.4L75,65.3
		C74.7,65.1,74.4,65,74.1,65L74.1,65z"/>
</g>
</svg>
