<?xml version="1.0" encoding="utf-8"?>
<!-- Generator: Adobe Illustrator 20.0.0, SVG Export Plug-In . SVG Version: 6.00 Build 0)  -->
<svg version="1.1" id="Layer_1" xmlns="http://www.w3.org/2000/svg" xmlns:xlink="http://www.w3.org/1999/xlink" x="0px" y="0px"
	 viewBox="0 0 128 128" style="enable-background:new 0 0 128 128;" xml:space="preserve">
<style type="text/css">path{fill:#ffffff;}</style>
<g id="Y_1_">
	<path d="M55.5,21.8c-4.9-14.9-21.1-23-36-18.1c-2.4,0.8-3.8,3.4-3,5.9c0.8,2.4,3.4,3.8,5.9,3c10-3.3,20.9,2.1,24.2,12.2
		c3.3,10-2.1,20.9-12.2,24.2c-4.9,1.6-10,1.2-14.6-1.1c-4.6-2.3-8-6.2-9.6-11.1C9.1,33.1,9,29.2,10,25.5c0.7-2.5-0.7-5.1-3.2-5.8
		c-2.5-0.7-5.1,0.7-5.8,3.2c-1.5,5.5-1.4,11.2,0.4,16.6c2.4,7.2,7.4,13.1,14.2,16.5c4,2,8.4,3.1,12.8,3.1c3,0,6-0.5,9-1.5
		C52.3,52.8,60.5,36.7,55.5,21.8z"/>
	<path d="M126.9,98.5c-1.9-5.6-5.8-10.2-11.1-12.8c-5.3-2.7-11.3-3.1-16.9-1.2c-1.8,0.6-3.5,1.4-5.1,2.4L56.7,51
		c-1.9,2.5-4,4.8-6.4,6.8l36.9,35.7c-0.4,0.7-0.8,1.3-1.2,2c-2.7,5.3-3.1,11.3-1.2,16.9c1.9,5.6,5.8,10.2,11.1,12.8
		c3.1,1.6,6.5,2.4,9.9,2.4c2.3,0,4.7-0.4,7-1.1c2.4-0.8,3.8-3.4,3-5.9c-0.8-2.4-3.5-3.8-5.9-3c-3.3,1.1-6.7,0.8-9.8-0.7
		c-3.1-1.5-5.3-4.2-6.4-7.4c-1.1-3.3-0.8-6.7,0.7-9.8c1.5-3.1,4.2-5.3,7.4-6.4c3.3-1.1,6.7-0.8,9.8,0.7c3.1,1.5,5.3,4.2,6.4,7.4
		c0.8,2.4,0.9,5,0.2,7.5c-0.7,2.5,0.7,5.1,3.2,5.8c2.5,0.7,5.1-0.7,5.8-3.2C128.4,107.2,128.3,102.7,126.9,98.5z"/>
</g>
</svg>
