<?xml version="1.0" encoding="utf-8"?>
<!-- Generator: Adobe Illustrator 20.0.0, SVG Export Plug-In . SVG Version: 6.00 Build 0)  -->
<svg version="1.1" id="Layer_1" xmlns="http://www.w3.org/2000/svg" xmlns:xlink="http://www.w3.org/1999/xlink" x="0px" y="0px"
	 viewBox="0 0 128 128" style="enable-background:new 0 0 128 128;" xml:space="preserve">
<style type="text/css">path{fill:#e91c23;}</style>
<g id="R_2_">
	<g>
		<path d="M73.6,29.9c-3.4-2.2-7.3-3.9-11.5-5v5.8c4.5,1.3,8.5,3.5,12,6.3c7.3,6,11.6,13.6,12.7,22.5c1.2,9.4-1.4,18.6-7.3,26
			c-4.5,5.6-10.7,9.8-17.4,11.7v6c7.5-2,14.3-6.1,19.6-11.8c6.3-6.8,10.1-15.6,10.7-24.9c0.6-8.7-1.6-17-6.6-24.6
			C82.4,36.9,78.3,32.9,73.6,29.9z"/>
		<path d="M57.3,3.6c0-1.8-1.2-3-3-3l0,0l0,0c-1.7,0.2-2.7,1.4-2.7,3.3v22.9l-0.2-0.2c-0.5-0.3-0.6-0.5-1-0.8
			c-0.9-0.9-1.7-1.8-2.5-2.5c-1.7-1.7-3.2-3.3-4.9-4.9c-0.6-0.6-1.4-0.9-2.2-0.9c-1.3,0-2.3,0.8-2.6,2.1l0,0c-0.4,1.1-0.1,1.9,0.9,3
			c2.6,2.5,5.2,5.2,7.8,7.7c1.3,1.3,2.6,2.6,3.9,4c0.3,0.3,0.7,1.2,0.7,1.7v21.6l-0.2-0.1c-0.2-0.1-0.3-0.2-0.4-0.2
			c-0.1-0.1-0.2-0.2-0.4-0.2l0,0c-5.8-3.5-11.8-6.8-17.5-10.1l0,0c-1.1-0.7-1.6-1.3-2-2.6c-0.7-2.5-1.4-5.1-2-7.6l0,0
			c-0.7-2.5-1.3-5-2.1-7.6c-0.4-1.5-1.5-2.5-2.8-2.5c-0.2,0-0.5,0-0.7,0.1l0,0c-0.9,0.2-1.5,0.7-1.9,1.4c-0.4,0.7-0.4,1.5-0.2,2.4
			c0.2,1,0.5,2.1,0.8,3.1c0.3,1,0.5,2,0.8,3.1l0,0c0.3,0.9,0.5,1.8,0.7,2.7c0.2,0.7,0.3,1.4,0.5,2.2l0.1,0.3l-0.3-0.2
			c-0.9-0.5-1.7-1-2.5-1.4l0,0c-0.9-0.5-1.7-0.9-2.5-1.4c-2-1.1-4-2.2-6-3.4l0,0c-1.2-0.7-2.4-1.4-3.6-2.1c-0.5-0.3-1.1-0.5-1.7-0.5
			c-1.2,0-2.3,0.8-2.7,2c-0.5,1.5,0,2.7,1.5,3.6c4.6,2.7,9.1,5.3,13.4,7.7l0,0c0.3,0.2,0.6,0.3,1.1,0.6l0.2,0.2L20.9,47
			c-0.2,0.1-0.4,0.2-0.5,0.2c-0.1,0.1-0.2,0.1-0.3,0.1l0,0c-2.8,0.6-5.5,1.4-8.4,2.2c-0.6,0.2-1.2,0.3-1.8,0.5l0,0
			c-1.3,0.4-2.1,1.3-2.3,2.5l0,0c-0.1,0.9,0.2,1.7,0.7,2.3c0.5,0.6,1.3,0.9,2.2,0.9c0.4,0,0.7,0,1.1-0.1c2.7-0.7,5.4-1.4,8-2.1
			c2.6-0.7,5.3-1.4,8-2.1c0.8-0.2,1.4-0.1,1.8,0.2l0,0c1.8,1,3.5,2.1,5.3,3.1c4.2,2.5,8.6,5,12.9,7.4l0,0l0,0c0.1,0,0.2,0.1,0.4,0.2
			c0.1,0.1,0.3,0.2,0.4,0.2l0.2,0.1l-0.1,0.1c-0.3,0.3-0.7,0.5-1,0.7l0,0c-3.3,1.9-6.7,3.8-9.9,5.7l-0.1,0c-3.2,1.9-6.5,3.8-9.8,5.7
			c-0.9,0.5-1.7,0.6-2.6,0.3l0,0c-5-1.4-10.1-2.8-15.3-4.1c-0.4-0.1-0.8-0.1-1.1-0.1c-0.9,0-1.6,0.4-2.2,1.2l0,0
			c-0.6,1.1-0.7,2.2-0.1,3.1l0,0c0.4,1,1.3,1.3,2.4,1.7c2.1,0.6,4.1,1.1,6.2,1.6l0,0c1.4,0.3,2.8,0.7,4.2,1.1l0.3,0.1l-0.3,0.2
			c-0.5,0.3-0.8,0.5-1.7,0.8l-0.1,0c-0.9,0.5-1.9,1.1-2.9,1.6C12,83.8,9.2,85.4,6.5,87l0,0c-0.5,0.3-0.9,0.6-1.2,0.9
			c-0.9,0.9-0.9,2.6,0,3.6c0.6,0.7,1.3,1,2.2,1c0.5,0,1.1-0.1,1.6-0.4c2-1.1,3.9-2.2,5.8-3.3l0.1,0c1.9-1.1,3.9-2.2,5.8-3.3l0,0
			c0.3-0.2,0.6-0.3,1.1-0.6l0.5-0.3L22,85.1c-0.1,0.3-0.1,0.4-0.1,0.6l0,0c-0.8,3.5-1.8,7-2.7,10.4l0,0c-0.2,1.1-0.1,2.1,0.5,2.8
			c0.5,0.6,1.2,1,2.1,1.1c1.6,0.2,2.7-0.9,3.2-2.7l0,0c0.7-2.6,1.4-5.2,2-7.8l0,0c0.7-2.6,1.3-5.2,2.1-7.8c0.2-0.7,0.5-1.2,1.2-1.5
			l0,0c3.3-1.9,6.7-3.9,10-5.8c3.3-1.9,6.7-3.9,10-5.8l1.2-0.6v23.5c0,0.6-0.5,1.2-0.7,1.4l-11.9,11.9c-0.7,0.7-1,1.4-1,2.3
			c0,0.8,0.3,1.5,0.9,2.1l0,0c0.6,0.5,1.3,0.8,2,0.8c0.8,0,1.7-0.4,2.4-1.1l7.3-7.3c0,0,0.1-0.1,0.1-0.2c0.1-0.2,0.3-0.4,0.7-0.7
			l0.2-0.2v23.3c0,0.8,0.2,1.7,0.5,2.3c0.4,0.8,1.3,1.3,2.4,1.3h0c0.3,0,0.6,0,0.9-0.1l0,0c1.3-0.5,2.1-1.6,2.1-2.9V3.6z"/>
		<path d="M123.2,59.9c-0.5-0.6-1.3-0.9-2.2-0.9c-2.8,0-5.5,0-8.2,0c-2.9,0-5.7,0-8.5,0c-0.9,0-1.6,0.3-2.2,0.9
			c-0.5,0.6-0.8,1.3-0.8,2.1c0,1.7,1.4,2.9,3.2,2.9c1.1,0,2.3,0,3.4,0l5,0l4.7,0c1.1,0,2.2,0,3.3,0c1.9,0,3.2-1.2,3.2-2.9
			C124,61.3,123.7,60.5,123.2,59.9z"/>
		<path d="M99.4,40.8c1-0.6,2-1.1,3-1.7l4.3-2.5l4.1-2.4c1-0.5,1.9-1.1,2.9-1.7c1.6-0.9,2.2-2.6,1.3-4.1c-0.4-0.7-1-1.3-1.8-1.5
			c-0.8-0.2-1.6-0.1-2.4,0.4c-2.4,1.4-4.8,2.7-7.2,4.1c-2.5,1.4-4.9,2.9-7.3,4.3c-0.7,0.4-1.3,1.1-1.5,1.9c-0.2,0.8-0.1,1.5,0.3,2.2
			C96,41.3,97.8,41.7,99.4,40.8z"/>
		<path d="M78.6,24.8c1.4,0.8,3.2,0.3,4.1-1.3c0.6-1,1.1-2,1.7-3l2.5-4.3l2.4-4.1c0.5-1,1.1-1.9,1.6-2.9c0.9-1.6,0.6-3.3-0.9-4.2
			c-0.7-0.4-1.5-0.6-2.3-0.4c-0.8,0.2-1.4,0.7-1.9,1.5c-1.4,2.4-2.8,4.8-4.2,7.1c-1.4,2.5-2.8,4.9-4.2,7.3c-0.4,0.7-0.5,1.6-0.3,2.4
			C77.4,23.8,77.9,24.4,78.6,24.8z"/>
		<path d="M113.7,91.5c-2.4-1.4-4.8-2.8-7.1-4.2c-2.5-1.4-4.9-2.8-7.3-4.2c-0.7-0.4-1.6-0.5-2.4-0.3c-0.8,0.2-1.4,0.7-1.8,1.4
			c-0.8,1.4-0.3,3.2,1.3,4.1c1,0.6,2,1.1,3,1.7l4.3,2.5l4.1,2.4c1,0.5,1.9,1.1,2.9,1.6c1.6,0.9,3.3,0.6,4.2-0.9
			c0.4-0.7,0.6-1.5,0.4-2.3C115,92.7,114.5,92,113.7,91.5z"/>
		<path d="M86.8,111.9c-1.4-2.5-2.9-4.9-4.3-7.3c-0.4-0.7-1.1-1.3-1.9-1.5c-0.8-0.2-1.5-0.1-2.2,0.3c-1.4,0.8-1.8,2.7-0.9,4.2
			c0.6,1,1.1,2,1.7,3l2.5,4.3l2.4,4.1c0.5,1,1.1,1.9,1.7,2.9c0.9,1.6,2.6,2.2,4.1,1.3c0.7-0.4,1.3-1,1.5-1.8
			c0.2-0.8,0.1-1.6-0.4-2.4C89.6,116.6,88.2,114.2,86.8,111.9z"/>
	</g>
</g>
</svg>
