<?xml version="1.0" encoding="utf-8"?>
<!-- Generator: Adobe Illustrator 20.0.0, SVG Export Plug-In . SVG Version: 6.00 Build 0)  -->
<svg version="1.1" id="Layer_1" xmlns="http://www.w3.org/2000/svg" xmlns:xlink="http://www.w3.org/1999/xlink" x="0px" y="0px"
	 viewBox="0 0 128 128" style="enable-background:new 0 0 128 128;" xml:space="preserve">
<style type="text/css">path{fill:#ffffff;}</style>
<g id="B_1_">
	<g>
		<path d="M64,128l-0.1,0c-3.5,0-6.8-2-8.8-5.3c-0.4-0.7-0.9-1.5-1.4-2.3l-0.1-0.2c-4.9-8-13.1-21.4-20.2-35.3
			c-8.9-17.4-13.2-30-13.2-38.6C20.2,20.8,39.9,0,64.2,0s44,20.8,44,46.3c0,9.1-4.8,22.7-14.6,41.5c-8,15.2-17.1,29.6-20.5,35
			C70.9,126.1,67.6,128,64,128z M64.2,9.3c-19.1,0-34.7,16.6-34.7,37c0,4.8,2.1,14.6,12.2,34.3c6.9,13.5,15,26.7,19.8,34.6l0.1,0.2
			c0.5,0.9,1,1.6,1.4,2.4c0.3,0.5,0.7,0.8,1,0.8c0.5,0,1-0.6,1.1-0.8c3.4-5.3,12.3-19.4,20.1-34.3c11.2-21.4,13.6-32.1,13.6-37.2
			C98.8,25.9,83.3,9.3,64.2,9.3z"/>
	</g>
</g>
</svg>
