<svg id="Layer_1" data-name="Layer 1" xmlns="http://www.w3.org/2000/svg" viewBox="0 0 100 100"><defs><style>.cls-1{fill:none;stroke:#231f20;stroke-miterlimit:10;}</style></defs><title>Artboard 1</title><g id="poly2"><polygon class="cls-1" points="35.21 25.16 40.62 45.04 20.14 50.42 40.36 55.71 34.91 75.68 49.79 60.9 64.93 75.68 59.31 55.71 79.61 50.32 59.23 44.93 64.76 25.16 49.79 39.73 35.21 25.16"/><polygon class="cls-1" points="29.84 5.42 50 0 70.32 5.33 64.76 25.16 49.79 39.73 35.21 25.16 29.84 5.42"/><polygon class="cls-1" points="79.79 10.58 94.68 25.16 100 44.93 79.61 50.32 59.23 44.93 64.76 25.16 79.79 10.58"/><polygon class="cls-1" points="94.47 75.48 100 55.71 79.61 50.32 59.31 55.71 64.93 75.68 79.99 90.05 94.47 75.48"/><polygon class="cls-1" points="49.76 100 70.47 95.39 64.93 75.68 49.79 60.9 34.91 75.68 29.84 95.22 49.76 100"/><polygon class="cls-1" points="20.42 90.05 34.91 75.68 40.36 55.71 20.14 50.42 0 55.71 5.32 75.48 20.42 90.05"/><polygon class="cls-1" points="0 44.82 5.32 25.16 20.01 10.57 35.21 25.16 40.62 45.04 20.14 50.42 0 44.82"/></g></svg>
