<?xml version="1.0" encoding="UTF-8" standalone="no"?>
<svg width="147px" height="23px" viewBox="0 0 147 23" version="1.1" xmlns="http://www.w3.org/2000/svg" xmlns:xlink="http://www.w3.org/1999/xlink">
    <!-- Generator: sketchtool 40 (33762) - http://www.bohemiancoding.com/sketch -->
    <title>3B4DA3F9-D8F0-41E9-A455-C0548D3BDAA5</title>
    <desc>Created with sketchtool.</desc>
    <defs>
        <polygon id="path-1" points="2.89725947 2.92908286 2.89725947 0.166257143 0.143486448 0.166257143 0.143486448 2.92908286 2.89725947 2.92908286"></polygon>
    </defs>
    <g id="SCREENS" stroke="none" stroke-width="1" fill="none" fill-rule="evenodd">
        <g id="TYRE-SELECTOR_DETAIL_REVERSE_SELECTOR_CROP_v2_SMALL-(320)" transform="translate(-114.000000, -14.000000)">
            <g id="Group-2">
                <polygon id="Rectangle-8" fill="#FFFFFF" points="0 0 375 0 375 52 0 52"></polygon>
                <g id="Page-1" transform="translate(114.000000, 14.000000)">
                    <g id="Group-3" transform="translate(143.551996, 0.162347)">
                        <mask id="mask-2" fill="white">
                            <use xlink:href="#path-1"></use>
                        </mask>
                        <g id="Clip-2"></g>
                        <path d="M1.52558409,2.75658286 C0.849119891,2.75658286 0.313913475,2.22298286 0.313913475,1.54284 C0.313913475,0.876825714 0.849119891,0.338954286 1.52558409,0.338954286 C2.19188822,0.338954286 2.72512817,0.876825714 2.72512817,1.54284 C2.72512817,2.22298286 2.19188822,2.75658286 1.52558409,2.75658286 L1.52558409,2.75658286 Z M1.52558409,2.92908286 C2.28169016,2.92908286 2.89752167,2.30775429 2.89752167,1.54284 C2.89752167,0.782197143 2.28169016,0.166125714 1.52558409,0.166125714 C0.760628934,0.166125714 0.143486448,0.782197143 0.143486448,1.54284 C0.143486448,2.30775429 0.760628934,2.92908286 1.52558409,2.92908286 L1.52558409,2.92908286 Z M1.74451727,1.63254 C2.00900691,1.62695429 2.21188062,1.51721143 2.21188062,1.21854 C2.21188062,0.964225714 2.07816096,0.819654286 1.67995165,0.819654286 L1.01856369,0.819654286 L1.01856369,2.32516857 L1.1925959,2.32516857 L1.1925959,1.63254 L1.54590424,1.63254 L1.97819895,2.32516857 L2.19647664,2.32516857 L1.74451727,1.63254 Z M1.1925959,1.46266857 L1.1925959,0.987225714 L1.63505068,0.987225714 C1.82448688,0.987225714 2.04407555,1.01712571 2.04407555,1.21558286 C2.04407555,1.49585429 1.70092728,1.46266857 1.48985997,1.46266857 L1.1925959,1.46266857 L1.1925959,1.46266857 Z" id="Fill-1" fill="#004684" mask="url(#mask-2)"></path>
                    </g>
                    <path d="M96.6988206,0.587814286 L95.1253203,6.26158571 L94.9417835,6.26158571 C94.5799538,4.81685714 93.1257525,4.54118571 91.4690051,4.54118571 C87.6776592,4.54118571 85.8757211,5.89687143 84.9921226,9.30185714 L84.3386005,11.8489429 C83.5687291,14.8047714 85.1668103,15.9534571 88.5065245,15.9534571 C90.4851168,15.9534571 92.0353472,15.5723143 92.9969489,13.8883857 L93.0956,13.8883857 L92.5898905,15.9107429 L97.1809325,15.9107429 L101.294123,0.587814286 L96.6988206,0.587814286 Z M94.042781,10.2547143 C93.3843427,12.7827429 92.7141056,13.1448286 90.843669,13.1448286 C88.9476683,13.1448286 88.5704346,12.9779143 89.2767236,10.2547143 C89.8450322,8.04835714 90.08363,7.34258571 92.3467043,7.34258571 C94.7382543,7.34258571 94.6006017,8.08811429 94.042781,10.2547143 L94.042781,10.2547143 Z" id="Fill-4" fill="#004684"></path>
                    <polygon id="Fill-6" fill="#004684" points="113.879766 15.9087386 109.222847 15.9087386 112.235801 4.56776714 116.89108 4.56776714"></polygon>
                    <polygon id="Fill-8" fill="#004684" points="117.209058 3.36654286 112.572132 3.36654286 113.303657 0.574671429 117.963198 0.574671429"></polygon>
                    <path d="M129.535324,11.3639386 C128.998806,13.4398529 128.251222,14.5875529 127.014643,15.2105243 C125.799694,15.8476243 124.106567,15.9534243 121.661267,15.9534243 C116.316086,15.9534243 115.387914,14.6562243 116.528792,10.2546814 C117.507436,6.46822429 118.960982,4.54115286 124.61326,4.54115286 C128.592403,4.54115286 131.217635,4.88122429 130.180652,8.85398143 L125.660075,8.85398143 C125.838696,8.26189571 125.8541,7.89586714 125.600426,7.65995286 C125.34118,7.43126714 124.836126,7.34255286 123.893206,7.34255286 C122.285948,7.34255286 121.715017,7.70989571 121.054285,10.2546814 C120.375199,12.8714243 120.676724,13.1447957 122.385254,13.1447957 C124.439228,13.1447957 124.651934,12.7416386 125.009503,11.3639386 L129.535324,11.3639386" id="Fill-10" fill="#004684"></path>
                    <path d="M49.5854159,5.33094 C50.0311482,3.78008286 48.3744008,3.80111143 46.8517009,3.80111143 C43.2088232,3.80111143 42.8663304,4.69679714 42.1462762,7.16174 L41.4717785,9.65494 C40.7471358,12.3636829 41.8290197,12.6498686 44.4703109,12.6498686 C47.0493307,12.6498686 47.8644307,12.18264 48.434378,10.0630257 L44.9058831,10.0630257 L45.6560897,7.22646857 L54.34033,7.22646857 L53.6196203,9.89939714 C52.2260516,15.05764 50.3493879,15.9996543 43.5611483,15.9996543 C37.5807983,15.9996543 34.7582645,15.1821686 36.1016884,10.2292829 L37.1691515,6.26901143 C38.5348619,1.21558286 42.187572,0.453625714 47.7598803,0.453625714 C52.6724394,0.453625714 56.1648824,0.478597143 54.727396,5.33094 L49.5854159,5.33094" id="Fill-12" fill="#004684"></path>
                    <path d="M136.353945,6.74724714 L136.472916,6.74724714 C137.584953,4.98577571 139.073895,4.54121857 141.206199,4.54121857 C144.264709,4.54121857 145.355442,5.70961857 144.735022,8.10786143 L142.661056,15.9107757 L138.165388,15.9107757 L139.987974,8.96050429 C140.245909,7.87194714 140.006655,7.34261857 138.532134,7.34261857 C136.507657,7.34261857 135.912146,8.32669 135.560804,9.68204714 L133.907334,15.9107757 L129.441818,15.9107757 L133.56943,0.587847143 L138.045761,0.587847143 L136.353945,6.74724714" id="Fill-14" fill="#004684"></path>
                    <path d="M63.0986077,4.54125143 C57.3326026,4.54125143 55.9085536,5.68533714 54.7175309,10.25478 C53.5645265,14.72138 54.4835215,15.9531943 60.1459595,15.9531943 C65.9811187,15.9531943 67.3517453,14.85248 68.5473565,10.25478 C69.7675484,5.53813714 68.8891938,4.54125143 63.0986077,4.54125143 M64.015964,10.25478 C63.3916111,12.67438 63.053379,13.1448943 60.9499162,13.1448943 C58.7605844,13.1448943 58.6216208,12.67438 59.2522008,10.25478 C59.8729485,7.83222286 60.2646029,7.34232286 62.4473799,7.34232286 C64.5577253,7.34232286 64.6429388,7.83222286 64.015964,10.25478" id="Fill-16" fill="#004684"></path>
                    <path d="M78.0993325,4.54125143 C72.3379158,4.54125143 70.9037068,5.68533714 69.7244828,10.25478 C68.5665623,14.72138 69.4852295,15.9531943 75.1516004,15.9531943 C80.8845034,15.9531943 82.3632857,14.85248 83.5493922,10.25478 C84.7738449,5.53813714 83.8951624,4.54125143 78.0993325,4.54125143 M79.0229159,10.25478 C78.3923359,12.67438 78.060331,13.1448943 75.9568681,13.1448943 C73.7727802,13.1448943 73.6249676,12.67438 74.2535811,10.25478 C74.8838334,7.83222286 75.277782,7.34232286 77.454004,7.34232286 C79.5640217,7.34232286 79.6534959,7.83222286 79.0229159,10.25478" id="Fill-18" fill="#004684"></path>
                    <path d="M15.9448905,0.587814286 L5.95032857,0.587814286 L1.82664999,15.9107429 L11.9146191,15.9107429 C15.9448905,15.9107429 18.2626981,15.3939 19.2744447,11.6452286 C19.7962136,9.72177143 19.6801921,8.35885714 16.9078032,8.21395714 L16.9474603,8.05032857 C19.5477834,7.72668571 20.3707493,6.46628571 20.8925182,4.52935714 C21.8006976,1.18055714 19.7254208,0.587814286 15.9448905,0.587814286 M14.3815503,11.0124 C14.0439737,12.259 13.2750856,12.5652286 11.6324312,12.5652286 L7.80175603,12.5652286 L8.59981336,9.56307143 L12.5412661,9.56307143 C14.1826095,9.56307143 14.7286315,9.74937143 14.3815503,11.0124 M15.6269786,5.25977143 C15.2998898,6.48041429 14.7987687,6.7298 13.0217392,6.7298 L9.36968469,6.7298 L10.1189081,3.9537 L14.3864664,3.9537 C15.7911784,3.9928 15.8754087,4.34667143 15.6269786,5.25977143" id="Fill-20" fill="#e91c23"></path>
                    <polygon id="Fill-22" fill="#e91c23" points="27.2648831 6.92053571 35.0157077 6.92053571 34.1173606 10.2653929 26.38194 10.2653929 24.8825099 15.9105786 19.7959186 15.9105786 23.9258243 0.587978571 37.3872653 0.587978571 36.4846576 3.92232143 28.0681843 3.92232143"></polygon>
                    <path d="M105.115818,9.20190571 L103.352226,15.9087057 L98.7080897,15.9106771 L101.736775,4.61537714 L106.213106,4.61537714 L105.716246,6.45406286 C105.716246,6.45406286 106.901697,4.62720571 109.829109,4.62720571 L111.180398,4.62720571 L110.415443,7.48380571 L107.358245,7.48380571 C106.316673,7.51272 105.487153,7.90569143 105.115818,9.20190571" id="Fill-24" fill="#004684"></path>
                    <polygon id="Fill-26" fill="#004684" points="127.564368 22.7156871 128.493195 19.2998586 0.91283338 19.2998586 6.55488548e-05 22.7156871"></polygon>
                    <polygon id="Fill-28" fill="#004684" points="130.503841 18.2170843 129.13387 18.2170843 129.267262 17.7261986 132.507997 17.7261986 132.369034 18.2170843 130.99939 18.2170843 129.733642 22.7786414 129.242025 22.7786414"></polygon>
                    <path d="M132.513208,19.2188329 L132.955008,19.2188329 L131.97243,22.7785757 L131.525387,22.7785757 L132.513208,19.2188329 Z M132.924855,17.7261329 L133.372226,17.7261329 L133.20311,18.3185471 L132.755739,18.3185471 L132.924855,17.7261329 Z" id="Fill-30" fill="#004684"></path>
                    <path d="M133.813927,19.2188329 L134.260643,19.2188329 L134.136427,19.6489329 L134.149865,19.6489329 C134.413699,19.3105043 134.661474,19.1623186 135.107534,19.1623186 C135.669615,19.1623186 135.862329,19.4074329 135.664371,20.1171471 L135.589646,20.4003757 L135.181932,20.4003757 C135.372023,19.7481614 135.345804,19.5674471 134.834851,19.5674471 C134.393379,19.56219 134.095459,19.8112471 133.957151,20.3001614 L133.271183,22.7785757 L132.82545,22.7785757 L133.813927,19.2188329" id="Fill-32" fill="#004684"></path>
                    <path d="M136.413464,20.6563329 C136.616993,19.9029186 136.731048,19.5674471 137.5255,19.5674471 C138.315364,19.5674471 138.235394,19.9029186 138.031209,20.6563329 L136.413464,20.6563329 Z M138.34781,21.0972757 L138.498901,20.56959 C138.765357,19.59669 138.71554,19.1623186 137.64906,19.1623186 C136.57668,19.1623186 136.240087,19.5244043 135.827785,20.9977186 C135.43613,22.4460614 135.465955,22.8337757 136.633052,22.8337757 C137.694288,22.8337757 137.947307,22.5610614 138.140676,21.8454329 L138.180333,21.7146614 L137.73329,21.7146614 C137.540249,22.4135329 137.382604,22.4250329 136.665827,22.4250329 C136.056222,22.4250329 135.982152,22.2042329 136.199774,21.4291329 L136.288593,21.0972757 L138.34781,21.0972757 L138.34781,21.0972757 Z" id="Fill-34" fill="#004684"></path>
                    <path d="M139.365751,21.6709286 C139.182542,22.2837143 139.25694,22.425 139.917017,22.425 C140.636416,22.425 140.789473,22.3228143 140.958916,21.7241571 C141.093292,21.2536429 141.052323,21.2152 140.225425,21.1721571 C139.345431,21.1255 139.138625,20.9921 139.356247,20.2025429 C139.564692,19.4530714 139.782314,19.1622857 140.839945,19.1622857 C141.882172,19.1622857 142.015892,19.4005 141.807119,20.1473429 L141.361059,20.1473429 C141.516737,19.6045429 141.375807,19.5674143 140.711142,19.5674143 C140.091049,19.5674143 139.96749,19.6301714 139.812467,20.1795429 C139.669243,20.6845571 139.718404,20.7276 140.458451,20.7693286 C141.495434,20.8314286 141.629153,20.9135714 141.417431,21.6939286 C141.187682,22.5321143 140.939907,22.8337429 139.792802,22.8337429 C138.979669,22.8337429 138.627016,22.7341857 138.919036,21.6709286 L139.365751,21.6709286" id="Fill-36" fill="#004684"></path>
                </g>
                <g id="Group-7" transform="translate(114.000000, 14.000000)"></g>
            </g>
        </g>
    </g>
</svg>
