<svg xmlns="http://www.w3.org/2000/svg" viewBox="0 0 119.94 128"><title>weather</title><style type="text/css">path{fill:#9e3242;}</style><path d="M-1833.6,762.1h-16.9a1.79,1.79,0,0,0-1.8,1.8,1.79,1.79,0,0,0,1.8,1.8h16.9a1.79,1.79,0,0,0,1.8-1.8A1.79,1.79,0,0,0-1833.6,762.1Z" transform="translate(1951.74 -701.1)"/><path d="M-1856.7,741.1a2.92,2.92,0,0,0,.9-0.2c0.9-.5,1.9-1.1,3.1-1.8l4.4-2.6,4.2-2.4c1.1-.6,2.1-1.2,2.9-1.7a1.82,1.82,0,0,0,.7-2.5,1.82,1.82,0,0,0-2.5-.7c-0.9.5-1.8,1-2.9,1.7l-4.2,2.4-4.4,2.6c-1.2.7-2.1,1.2-3.1,1.8a1.82,1.82,0,0,0-.7,2.5A2.2,2.2,0,0,0-1856.7,741.1Z" transform="translate(1951.74 -701.1)"/><path d="M-1875.6,723.7a1.49,1.49,0,0,0,.9.2,1.92,1.92,0,0,0,1.6-.9c0.5-.9,1.1-1.9,1.8-3.1l2.6-4.4,2.4-4.2c0.6-1.1,1.2-2.1,1.7-2.9a1.82,1.82,0,0,0-.7-2.5,1.82,1.82,0,0,0-2.5.7c-0.5.9-1.1,1.8-1.7,2.9l-2.4,4.2-2.6,4.4a33.73,33.73,0,0,1-1.8,3A2.11,2.11,0,0,0-1875.6,723.7Z" transform="translate(1951.74 -701.1)"/><path d="M-1842.2,795.2c-0.9-.5-1.8-1.1-2.9-1.7l-4.2-2.4-4.4-2.6c-1.2-.7-2.1-1.2-3-1.8a1.82,1.82,0,0,0-2.5.7,1.82,1.82,0,0,0,.7,2.5c0.9,0.5,1.9,1.1,3.1,1.8l4.4,2.6,4.2,2.4c1.1,0.6,2.1,1.2,2.9,1.7a1.49,1.49,0,0,0,.9.2,1.92,1.92,0,0,0,1.6-.9A1.94,1.94,0,0,0-1842.2,795.2Z" transform="translate(1951.74 -701.1)"/><path d="M-1868.2,819.7l-2.4-4.2-2.6-4.4c-0.7-1.2-1.2-2.2-1.8-3.1a1.82,1.82,0,0,0-2.5-.7,1.82,1.82,0,0,0-.7,2.5c0.5,0.9,1.1,1.9,1.8,3.1l2.6,4.4,2.4,4.2c0.6,1.1,1.2,2.1,1.7,2.9a1.7,1.7,0,0,0,1.6.9,2.92,2.92,0,0,0,.9-0.2,1.82,1.82,0,0,0,.7-2.5C-1867,821.8-1867.6,820.8-1868.2,819.7Z" transform="translate(1951.74 -701.1)"/><path d="M-1896.3,725c-0.3,0-.5-0.1-0.7-0.1v3.7h0.2a36.54,36.54,0,0,1,22.2,12.2,36.66,36.66,0,0,1,9,24,36.73,36.73,0,0,1-9,24.1,37.06,37.06,0,0,1-22.3,12.2v3.7a0.9,0.9,0,0,0,.5-0.1,40.5,40.5,0,0,0,24.6-13.4,40.12,40.12,0,0,0,9.9-26.5,40.05,40.05,0,0,0-9.9-26.4A40.76,40.76,0,0,0-1896.3,725Z" transform="translate(1951.74 -701.1)"/><path d="M-1902.1,701.1a1.79,1.79,0,0,0-1.8,1.8v28.5l-11-11.3a1.87,1.87,0,0,0-2.6,0,1.87,1.87,0,0,0,0,2.6l13.6,14v25l-23.5-13.2-4.3-18.1a1.84,1.84,0,0,0-2.2-1.4,1.84,1.84,0,0,0-1.4,2.2l3.5,14.8-17.1-9.6a1.82,1.82,0,0,0-2.5.7,1.82,1.82,0,0,0,.7,2.5l17,9.5-14.3,4.3a1.8,1.8,0,0,0-1.2,2.3,1.8,1.8,0,0,0,1.7,1.3,0.75,0.75,0,0,0,.5-0.1l17.7-5.3,22.7,12.7-22.7,12.7-17.7-5.3a1.88,1.88,0,0,0-2.3,1.2,1.88,1.88,0,0,0,1.2,2.3l14.3,4.3-17,9.5a1.82,1.82,0,0,0-.7,2.5,1.8,1.8,0,0,0,1.6.9,2.92,2.92,0,0,0,.9-0.2l17.1-9.6-3.5,14.8a1.84,1.84,0,0,0,1.4,2.2h0.4a1.92,1.92,0,0,0,1.8-1.4l4.3-18.1,23.5-13.2v25l-13.6,14a1.87,1.87,0,0,0,0,2.6,2.11,2.11,0,0,0,1.3.5,2.11,2.11,0,0,0,1.3-.5l11-11.3v30.1a1.79,1.79,0,0,0,1.8,1.8,1.79,1.79,0,0,0,1.8-1.8V764.7h0v-0.8h0V703A1.74,1.74,0,0,0-1902.1,701.1Z" transform="translate(1951.74 -701.1)"/></svg>
