<svg xmlns="http://www.w3.org/2000/svg" viewBox="0 0 127.9 128.3"><title>pressure</title><style type="text/css">path{fill:#004785;}</style><path d="M-1762.7,797.2a5.06,5.06,0,0,0-3.6,1.4l-4.6-2.6a1.82,1.82,0,0,0-2.5.7,1.82,1.82,0,0,0,.7,2.5l4.7,2.6c0,0.2-.1.5-0.1,0.7a5.38,5.38,0,0,0,5.4,5.4,5.38,5.38,0,0,0,5.4-5.4A5.29,5.29,0,0,0-1762.7,797.2Zm0,7.1a1.75,1.75,0,0,1-1.7-1.7,1.75,1.75,0,0,1,1.7-1.7,1.75,1.75,0,0,1,1.7,1.7A1.75,1.75,0,0,1-1762.7,804.3Z" transform="translate(1788.9 -700.9)"/><path d="M-1736.4,804.8h0a13.41,13.41,0,0,0,.1-2,9.7,9.7,0,0,0-.1-1.7h0a26.23,26.23,0,0,0-2.5-9.7h0a20.16,20.16,0,0,0-1.8-3.2h0a25.39,25.39,0,0,0-7.3-7.3h0a19.23,19.23,0,0,0-3.1-1.8h0a25,25,0,0,0-9.7-2.6h0c-0.6,0-1.2-.1-1.8-0.1a10.87,10.87,0,0,0-1.8.1h0a24.53,24.53,0,0,0-9.7,2.6h0a19.23,19.23,0,0,0-3.1,1.8h0a25.39,25.39,0,0,0-7.3,7.3h0a20.16,20.16,0,0,0-1.8,3.2h0a26.74,26.74,0,0,0-2.5,9.7h0c0,0.6-.1,1.1-0.1,1.7a13.41,13.41,0,0,0,.1,2h0a27.87,27.87,0,0,0,2.6,9.6h0a33,33,0,0,0,1.8,3.2h0a26.19,26.19,0,0,0,21.8,11.6,26.19,26.19,0,0,0,21.8-11.6h0a20.16,20.16,0,0,0,1.8-3.2h0A28.49,28.49,0,0,0-1736.4,804.8Zm-6.5,0h2.8a21.92,21.92,0,0,1-1.7,6.8c-0.1.3-.3,0.6-0.4,0.9l-2.2-1.3a1.82,1.82,0,0,0-2.5.7,1.82,1.82,0,0,0,.7,2.5l2.2,1.3a19.42,19.42,0,0,1-2.6,3.1,23.58,23.58,0,0,1-7.2,4.9,22.35,22.35,0,0,1-8.8,1.8,22,22,0,0,1-8.8-1.8,21.93,21.93,0,0,1-7.2-4.9,25.12,25.12,0,0,1-2.6-3.1l2.3-1.3a1.82,1.82,0,0,0,.7-2.5,1.82,1.82,0,0,0-2.5-.7l-2.3,1.3c-0.1-.3-0.3-0.6-0.4-0.9a23.41,23.41,0,0,1-1.7-6.8h2.9a1.79,1.79,0,0,0,1.8-1.8,1.79,1.79,0,0,0-1.8-1.8h-2.9a24.56,24.56,0,0,1,1.7-7.1c0.1-.2.2-0.5,0.3-0.7l2.4,1.4a1.49,1.49,0,0,0,.9.2,1.8,1.8,0,0,0,1.6-.9,1.82,1.82,0,0,0-.7-2.5l-2.5-1.4a21.59,21.59,0,0,1,2.7-3.3,26.92,26.92,0,0,1,3.2-2.7l1.5,2.6a1.8,1.8,0,0,0,1.6.9,2.92,2.92,0,0,0,.9-0.2,1.82,1.82,0,0,0,.7-2.5l-1.5-2.6c0.3-.1.5-0.3,0.8-0.4a23.91,23.91,0,0,1,7-1.7v3a1.79,1.79,0,0,0,1.8,1.8,1.79,1.79,0,0,0,1.8-1.8v-3a24.71,24.71,0,0,1,7,1.7c0.3,0.1.6,0.3,0.9,0.4l-1.5,2.6a1.82,1.82,0,0,0,.7,2.5,1.49,1.49,0,0,0,.9.2,1.8,1.8,0,0,0,1.6-.9l1.5-2.6a40.32,40.32,0,0,1,3.2,2.6,21.58,21.58,0,0,1,2.7,3.3l-2.4,1.4a1.82,1.82,0,0,0-.7,2.5,1.8,1.8,0,0,0,1.6.9,2.92,2.92,0,0,0,.9-0.2l2.4-1.4c0.1,0.2.2,0.5,0.3,0.7a22.32,22.32,0,0,1,1.7,7.1h-2.8a1.79,1.79,0,0,0-1.8,1.8A1.88,1.88,0,0,0-1742.9,804.8Z" transform="translate(1788.9 -700.9)"/><path d="M-1718.4,704.8a51.61,51.61,0,0,1,6.7,1h0.4a1.82,1.82,0,0,0,1.8-1.5,1.84,1.84,0,0,0-1.4-2.2l-1.7-.3h-0.6a0.6,0.6,0,0,1-.4-0.1h0c-0.2,0-.4-0.1-0.6-0.1h-0.6c-0.6-.1-1.3-0.1-1.9-0.2h-0.2a1.84,1.84,0,0,0-1.8,1.7C-1720.2,703.8-1719.4,704.7-1718.4,704.8Z" transform="translate(1788.9 -700.9)"/><path d="M-1707.8,706.7a48.33,48.33,0,0,1,6.4,2.2,1.7,1.7,0,0,0,.7.1,1.85,1.85,0,0,0,1.7-1.1,1.88,1.88,0,0,0-1-2.4,49.7,49.7,0,0,0-6.5-2.2h-0.1c-0.2,0-.3-0.1-0.5-0.1a1.92,1.92,0,0,0-1.8,1.3A1.68,1.68,0,0,0-1707.8,706.7Z" transform="translate(1788.9 -700.9)"/><path d="M-1730.4,705h0.2a50.71,50.71,0,0,1,6.8-.4h1a1.79,1.79,0,0,0,1.8-1.8,2,2,0,0,0-1.8-1.9h-1.6l-3.7.3a1.81,1.81,0,0,0-1.6,2C-1732.1,704.3-1731.3,705-1730.4,705Z" transform="translate(1788.9 -700.9)"/><path d="M-1697.6,710.5c2,1,4,2.1,5.9,3.3a1.93,1.93,0,0,0,1,.3,1.76,1.76,0,0,0,1.5-.8,1.79,1.79,0,0,0-.6-2.5c-0.2-.2-0.5-0.3-0.7-0.5h0c-1.7-1-3.4-2-5.1-2.8a2.35,2.35,0,0,0-.8-0.2,2.06,2.06,0,0,0-1.7,1A1.27,1.27,0,0,0-1697.6,710.5Z" transform="translate(1788.9 -700.9)"/><path d="M-1688.4,716.1a53.94,53.94,0,0,1,5.2,4.3,2.11,2.11,0,0,0,1.3.5,1.61,1.61,0,0,0,1.3-.6,1.79,1.79,0,0,0-.1-2.6,50.72,50.72,0,0,0-4.4-3.7h0l-0.1-.1h0l-0.1-.1h0l-0.1-.1h-0.1a2.1,2.1,0,0,0-1.1-.4,2.13,2.13,0,0,0-1.5.7C-1689.4,714.4-1689.2,715.5-1688.4,716.1Z" transform="translate(1788.9 -700.9)"/><path d="M-1741.3,707.2a0.75,0.75,0,0,0,.5-0.1,48.84,48.84,0,0,1,6.6-1.6,1.81,1.81,0,0,0,1.5-2.1,1.82,1.82,0,0,0-1.8-1.5h-0.6c-1.1.2-2.2,0.5-3.4,0.8h-0.6c-0.5.1-.9,0.3-1.4,0.4a1.8,1.8,0,0,0-1.2,2.3C-1742.9,706.7-1742.1,707.2-1741.3,707.2Z" transform="translate(1788.9 -700.9)"/><path d="M-1673.7,732c1.2,1.9,2.3,3.9,3.3,5.9a1.76,1.76,0,0,0,1.7,1,2.35,2.35,0,0,0,.8-0.2,1.92,1.92,0,0,0,.9-2.5h0v-0.1h0c-1-2.1-2.2-4.2-3.4-6.2a1.7,1.7,0,0,0-1.6-.9,1.93,1.93,0,0,0-1,.3A1.92,1.92,0,0,0-1673.7,732Z" transform="translate(1788.9 -700.9)"/><path d="M-1667.8,739.2a1.84,1.84,0,0,0-1,2.4,47.88,47.88,0,0,1,2.1,6.4,1.92,1.92,0,0,0,1.8,1.4,0.9,0.9,0,0,0,.5-0.1,1.85,1.85,0,0,0,1.3-2.3c0-.1-0.1-0.2-0.1-0.3h0v-0.1h0v-0.1h0v-0.1h0v-0.1h0c-0.4-1.4-.9-2.8-1.4-4.1h0v-0.1h0V742h0a3.55,3.55,0,0,0-.4-0.9,2,2,0,0,0-1.7-1.2C-1667.4,739.1-1667.6,739.1-1667.8,739.2Z" transform="translate(1788.9 -700.9)"/><path d="M-1680.4,723.4c1.5,1.7,3,3.4,4.3,5.2a1.8,1.8,0,0,0,1.5.7,1.5,1.5,0,0,0,1.1-.4,1.88,1.88,0,0,0,.4-2.6,10.62,10.62,0,0,0-.9-1.1h0a0.1,0.1,0,0,0-.1-0.1h0l-0.1-.1h0l-0.1-.1h0l-0.1-.1h0l-0.1-.1h0v-0.1h0l-0.1-.1h0a0.1,0.1,0,0,0-.1-0.1h0a0.1,0.1,0,0,0-.1-0.1h0l-0.1-.1h0a0.1,0.1,0,0,0-.1-0.1h0l-1.9-2.2a1.94,1.94,0,0,0-1.3-.6,1.84,1.84,0,0,0-1.2.5C-1681,721.5-1681,722.6-1680.4,723.4Z" transform="translate(1788.9 -700.9)"/><path d="M-1663.4,772h-0.3a1.75,1.75,0,0,0-1.8,1.5q-0.6,3.3-1.5,6.6a1.88,1.88,0,0,0,1.2,2.3,1.09,1.09,0,0,0,.5.1,1.92,1.92,0,0,0,1.8-1.3,54.68,54.68,0,0,0,1.6-7A1.93,1.93,0,0,0-1663.4,772Z" transform="translate(1788.9 -700.9)"/><path d="M-1661,763.3h0v-0.6h0a1.79,1.79,0,0,0-1.8-1.8h0a1.82,1.82,0,0,0-1.8,1.9v0.6c0,2.1-.1,4.1-0.3,6.2a1.81,1.81,0,0,0,1.6,2h0.2a1.83,1.83,0,0,0,1.8-1.6,51.17,51.17,0,0,0,.3-5.6h0v-1.1h0Z" transform="translate(1788.9 -700.9)"/><path d="M-1706,819.6a0.75,0.75,0,0,0-.5.1c-2.2.6-4.4,1.2-6.6,1.6a1.81,1.81,0,0,0-1.5,2.1,1.82,1.82,0,0,0,1.8,1.5h0.3c0.3-.1.7-0.1,1-0.2h0.6a34.47,34.47,0,0,0,4.6-1.2,1.8,1.8,0,0,0,1.2-2.3A1,1,0,0,0-1706,819.6Z" transform="translate(1788.9 -700.9)"/><path d="M-1717,821.8h-0.2q-3.15.3-6.3,0.3h-0.5a1.79,1.79,0,0,0-1.8,1.8,2,2,0,0,0,1.8,1.9h1.3l3.9-.3a1.81,1.81,0,0,0,1.6-2C-1715.3,822.5-1716.1,821.8-1717,821.8Z" transform="translate(1788.9 -700.9)"/><path d="M-1728,822c-2.2-.2-4.5-0.5-6.7-0.9h-0.4a1.82,1.82,0,0,0-1.8,1.5,1.91,1.91,0,0,0,1.5,2.2l1.6,0.3h0.5a9.85,9.85,0,0,0,1.7.2h0.6c0.4,0,.8.1,1.2,0.1h0.1a1.71,1.71,0,0,0,1.8-1.7C-1726.2,822.9-1727,822-1728,822Z" transform="translate(1788.9 -700.9)"/><path d="M-1738.7,820.1l-1.1-.3a25.47,25.47,0,0,1-2.6,3h0.7a2.92,2.92,0,0,0,.9.2c0.2,0,.3.1,0.5,0.1a1.81,1.81,0,0,0,1.8-1.4C-1737.1,821.4-1737.7,820.4-1738.7,820.1Z" transform="translate(1788.9 -700.9)"/><path d="M-1695.7,815.4a1.88,1.88,0,0,0-.8.2,48.46,48.46,0,0,1-6.2,2.7,2,2,0,0,0-1.1,2.4,2,2,0,0,0,1.7,1.2,1.27,1.27,0,0,0,.6-0.1,65.76,65.76,0,0,0,6.6-2.9,1.94,1.94,0,0,0,.8-2.5A1.78,1.78,0,0,0-1695.7,815.4Z" transform="translate(1788.9 -700.9)"/><path d="M-1670.6,793.1a1.61,1.61,0,0,0-.9-0.3,1.92,1.92,0,0,0-1.6.9c-1.2,1.9-2.5,3.8-3.8,5.6a1.88,1.88,0,0,0,.3,2.6,1.5,1.5,0,0,0,1.1.4,1.93,1.93,0,0,0,1.5-.7q1.5-1.95,3-4.2h0v-0.1h0v-0.1h0a10.54,10.54,0,0,1,.7-1.1C-1669.4,794.7-1669.7,793.6-1670.6,793.1Z" transform="translate(1788.9 -700.9)"/><path d="M-1666,782.9a1.27,1.27,0,0,0-.6-0.1,2,2,0,0,0-1.7,1.2c-0.8,2.1-1.7,4.2-2.7,6.2a1.85,1.85,0,0,0,.8,2.5,3.09,3.09,0,0,0,.8.2,1.78,1.78,0,0,0,1.6-1,48.86,48.86,0,0,0,2.9-6.6A1.94,1.94,0,0,0-1666,782.9Z" transform="translate(1788.9 -700.9)"/><path d="M-1676.9,802.2a1.85,1.85,0,0,0-1.2-.5,2,2,0,0,0-1.4.6,54.35,54.35,0,0,1-4.8,4.8,1.78,1.78,0,0,0-.1,2.6,2,2,0,0,0,1.4.6,1.84,1.84,0,0,0,1.2-.5,46.84,46.84,0,0,0,3.9-3.8h0l0.1-.1h0l0.1-.1h0c0.2-.3.5-0.5,0.7-0.8A1.94,1.94,0,0,0-1676.9,802.2Z" transform="translate(1788.9 -700.9)"/><path d="M-1686.3,809.4a1.5,1.5,0,0,0-1.1.4,50.2,50.2,0,0,1-5.6,3.8,1.81,1.81,0,0,0-.6,2.5,1.8,1.8,0,0,0,1.6.9,1.4,1.4,0,0,0,.9-0.3,47.8,47.8,0,0,0,5.9-4.1,1.88,1.88,0,0,0,.3-2.6A2.25,2.25,0,0,0-1686.3,809.4Z" transform="translate(1788.9 -700.9)"/><path d="M-1783.6,755.2h0.3a1.75,1.75,0,0,0,1.8-1.5q0.6-3.3,1.5-6.6a1.85,1.85,0,0,0-1.3-2.3c-0.2,0-.3-0.1-0.5-0.1a1.92,1.92,0,0,0-1.8,1.3,51.46,51.46,0,0,0-1.5,6.8h0v0.1h0A2,2,0,0,0-1783.6,755.2Z" transform="translate(1788.9 -700.9)"/><path d="M-1781,744.3a1.27,1.27,0,0,0,.6.1,1.84,1.84,0,0,0,1.7-1.2c0.8-2.1,1.7-4.2,2.7-6.2a1.85,1.85,0,0,0-.8-2.5,2.35,2.35,0,0,0-.8-0.2,1.78,1.78,0,0,0-1.6,1c-0.5,1-1,2-1.5,3.1h0v0.1h0v0.1h0v0.1h0v0.1h0v0.1h0V739h0v0.1h0c-0.2.6-.5,1.2-0.7,1.8C-1782.5,742.9-1782,743.9-1781,744.3Z" transform="translate(1788.9 -700.9)"/><path d="M-1664.3,749.8a1.84,1.84,0,0,0-1.4,2.2c0.4,2.2.7,4.5,0.9,6.7a1.84,1.84,0,0,0,1.8,1.7h0.1a1.88,1.88,0,0,0,1.7-2,2.2,2.2,0,0,0-.1-0.8h0v-0.1h0v-0.1h0v-0.1h0v-0.1h0v-0.1h0V757h0v-0.1h0v-0.1h0v-0.1h0v-0.1h0v-0.1h0v-0.1h0v-0.1h0v-0.1h0v-0.1h0V756h0v-0.1h0v-0.1h0v-0.1h0v-0.1h0v-0.1h0v-0.1h0v-0.1h0v-0.1h0v-0.1h0V755h0v-0.1h0v-0.1h0a0.37,0.37,0,0,0-.1-0.3,1.82,1.82,0,0,0-1.8-1.5C-1664.1,749.8-1664.2,749.8-1664.3,749.8Z" transform="translate(1788.9 -700.9)"/><path d="M-1776.6,734.1a1.61,1.61,0,0,0,.9.3,1.92,1.92,0,0,0,1.6-.9,50.2,50.2,0,0,1,3.8-5.6,1.81,1.81,0,0,0-.4-2.6,1.5,1.5,0,0,0-1.1-.4,1.8,1.8,0,0,0-1.5.7,62.54,62.54,0,0,0-4,6A2.08,2.08,0,0,0-1776.6,734.1Z" transform="translate(1788.9 -700.9)"/><path d="M-1761,717.6a1.5,1.5,0,0,0,1.1-.4c1.8-1.4,3.6-2.7,5.5-3.9a1.81,1.81,0,0,0,.6-2.5,1.7,1.7,0,0,0-1.6-.9,1.93,1.93,0,0,0-1,.3c-0.8.5-1.7,1.1-2.5,1.6h0l-0.1.1h-0.2l-0.1.1h0a7,7,0,0,0-1,.8,1.88,1.88,0,0,0-.3,2.6C-1762.1,717.4-1761.5,717.6-1761,717.6Z" transform="translate(1788.9 -700.9)"/><path d="M-1770.3,724.8a1.85,1.85,0,0,0,1.2.5,2,2,0,0,0,1.4-.6c1.5-1.7,3.1-3.3,4.7-4.8a1.78,1.78,0,0,0,.1-2.6,2,2,0,0,0-1.4-.6,1.84,1.84,0,0,0-1.2.5l-0.1.1h0l-0.1.1h0a39.84,39.84,0,0,0-3.5,3.6h0l-0.1.1h0a0.1,0.1,0,0,1-.1.1h0l-0.3.3C-1771.1,723-1771.1,724.2-1770.3,724.8Z" transform="translate(1788.9 -700.9)"/><path d="M-1751.7,711.5a2.92,2.92,0,0,0,.9-0.2c2-1,4.1-2,6.2-2.8a2,2,0,0,0,1.1-2.4,2,2,0,0,0-1.7-1.2,2,2,0,0,0-.7.1,0.1,0.1,0,0,0-.1.1h-1.4c-1.2.5-2.4,1.1-3.6,1.7a1.94,1.94,0,0,0-.8,2.5C-1753,711.2-1752.3,711.5-1751.7,711.5Z" transform="translate(1788.9 -700.9)"/><path d="M-1779.8,780a3.09,3.09,0,0,1-.2-0.8,1.83,1.83,0,0,0-1.8-1.3,0.9,0.9,0,0,0-.5.1,1.94,1.94,0,0,0-1.3,2.3,24.11,24.11,0,0,0,.8,2.5A15.84,15.84,0,0,1-1779.8,780Z" transform="translate(1788.9 -700.9)"/><path d="M-1785.9,763.4h0v0.1h0v0.1h0v0.1h0v0.6h0a1.79,1.79,0,0,0,1.8,1.8h0a1.88,1.88,0,0,0,1.8-1.9v-1.1a54.39,54.39,0,0,1,.3-5.7,1.81,1.81,0,0,0-1.7-2h-0.2a1.84,1.84,0,0,0-1.8,1.7c-0.1,1.1-.2,2.3-0.2,3.4h0v0.3h0V761h0v0.1h0v0.1h0c0,2.1,0,2.1,0,2.2h0Z" transform="translate(1788.9 -700.9)"/><path d="M-1783.8,766.8h-0.2a1.88,1.88,0,0,0-1.7,2c0.2,2.4.6,4.8,1,7.1a1.82,1.82,0,0,0,1.8,1.5h0.4a1.84,1.84,0,0,0,1.4-2.2,51.6,51.6,0,0,1-1-6.7A1.75,1.75,0,0,0-1783.8,766.8Z" transform="translate(1788.9 -700.9)"/><path d="M-1751.8,775.3a30.61,30.61,0,0,1-2.4-12,31,31,0,0,1,2.4-12,30.8,30.8,0,0,1,6.6-9.8,29.73,29.73,0,0,1,9.8-6.6,30.61,30.61,0,0,1,12-2.4,30.61,30.61,0,0,1,12,2.4,30.8,30.8,0,0,1,9.8,6.6,31.34,31.34,0,0,1,6.6,9.8,30.61,30.61,0,0,1,2.4,12,31,31,0,0,1-2.4,12,30.8,30.8,0,0,1-6.6,9.8,31.34,31.34,0,0,1-9.8,6.6,30.61,30.61,0,0,1-12,2.4,30.61,30.61,0,0,1-12-2.4c-0.4-.2-0.8-0.3-1.2-0.5a25.07,25.07,0,0,1,1.6,4.6,33.91,33.91,0,0,0,11.5,2,34.4,34.4,0,0,0,34.4-34.4,34.4,34.4,0,0,0-34.4-34.4,34.4,34.4,0,0,0-34.4,34.4,34.63,34.63,0,0,0,2,11.7,22.72,22.72,0,0,1,4.6,1.6A7.83,7.83,0,0,0-1751.8,775.3Z" transform="translate(1788.9 -700.9)"/><path d="M-1696.7,763.3a26.8,26.8,0,0,0-26.8-26.8,26.8,26.8,0,0,0-26.8,26.8,26.8,26.8,0,0,0,26.8,26.8A26.8,26.8,0,0,0-1696.7,763.3Zm-10.4,16.4a24.33,24.33,0,0,1-7.3,5,22.85,22.85,0,0,1-3.7,1.2V773.7c0.2-.1.5-0.3,0.7-0.4l10.6,6.1Zm2.7-3.2-10.1-5.8a14.92,14.92,0,0,0,1.8-3l10.1,5.8Zm4.1-13.2a20.71,20.71,0,0,1-1,6.6l-10.6-6.1v-1.2l10.6-6.1A26.63,26.63,0,0,1-1700.3,763.3Zm-4.2-13.2a23.82,23.82,0,0,1,1.8,3l-10.1,5.8a14.92,14.92,0,0,0-1.8-3Zm-13.6-9.2a26.54,26.54,0,0,1,3.7,1.2,21.61,21.61,0,0,1,7.3,5l0.2,0.2-10.7,6.2a2.19,2.19,0,0,1-.5-0.3V740.9Zm-7.2-.6c0.6,0,1.2-.1,1.9-0.1a9.7,9.7,0,0,1,1.7.1v11.6a9.15,9.15,0,0,0-1.7-.1c-0.6,0-1.2.1-1.9,0.1V740.3Zm-14.5,6.7a24.33,24.33,0,0,1,7.3-5,20.63,20.63,0,0,1,3.5-1.2v12.3a3.51,3.51,0,0,0-.8.5l-10.6-6.1A2.65,2.65,0,0,0-1739.8,747Zm-2.9,3.5,10.1,5.8a11.67,11.67,0,0,0-1.7,3.1l-10.1-5.8A30.67,30.67,0,0,1-1742.7,750.5Zm-3.9,12.8a21.81,21.81,0,0,1,.9-6.3l10.7,6.2v0.4l-10.7,6.1A22.49,22.49,0,0,1-1746.6,763.3Zm4,13a31.39,31.39,0,0,1-1.8-3.1l10.1-5.8a13.45,13.45,0,0,0,1.7,3.1Zm13.6,9.5a24.15,24.15,0,0,1-3.5-1.2,21.61,21.61,0,0,1-7.3-5l-0.5-.5,10.6-6.1a4.35,4.35,0,0,0,.7.4v12.4h0Zm-2.2-22.5a7.7,7.7,0,0,1,7.7-7.7,7.77,7.77,0,0,1,7.7,7.7,7.77,7.77,0,0,1-7.7,7.7A7.7,7.7,0,0,1-1731.2,763.3Zm5.9,11.5a11.49,11.49,0,0,0,1.9.1,9.7,9.7,0,0,0,1.7-.1v11.6c-0.6,0-1.1.1-1.7,0.1a12.75,12.75,0,0,1-1.9-.1V774.8Z" transform="translate(1788.9 -700.9)"/></svg>
