<?xml version="1.0" encoding="utf-8"?>
<!-- Generator: Adobe Illustrator 20.0.0, SVG Export Plug-In . SVG Version: 6.00 Build 0)  -->
<svg version="1.1" id="Layer_1" xmlns="http://www.w3.org/2000/svg" xmlns:xlink="http://www.w3.org/1999/xlink" x="0px" y="0px"
	 viewBox="0 0 128 128" style="enable-background:new 0 0 128 128;" xml:space="preserve">
<style type="text/css">
	.st0{fill:#FFFFFF;}
	.st1{fill:#ED1C24;}
</style>
<g id="B">
	<g>
		<path class="st0" d="M66.9,125.8c-1.4,0-2.6-0.8-3.5-2.3c-0.5-0.8-1.1-1.7-1.7-2.7v-0.1c-5.2-8.5-14-22.8-21.5-37.5
			c-9-17.5-13.5-30.4-13.5-38.4C26.7,21.3,44.8,2,67,2s40.3,19.2,40.3,42.9c0,8.5-5,22.5-15,41.5c-8.5,16.2-18.2,31.5-21.8,37.2
			C69.6,125,68.3,125.8,66.9,125.8L66.9,125.8z"/>
		<path class="st1" d="M67,4.2c21.1,0,38.2,18.3,38.2,40.8c0,10.2-8,27.6-14.7,40.5c-8.4,16-18.1,31.3-21.7,37
			c-0.3,0.5-1,1.3-1.9,1.3l0,0c-0.9,0-1.5-0.9-1.7-1.3c-0.5-0.8-1.1-1.8-1.7-2.8c-5.2-8.5-14-22.8-21.4-37.4
			c-6-11.8-13.2-27.9-13.2-37.4C28.8,22.5,46,4.2,67,4.2 M67,0C43.6,0,24.6,20.2,24.6,45c0,8.3,4.6,21.5,13.7,39.3
			c7.5,14.8,16.3,29.1,21.6,37.7c0.6,1,1.2,1.9,1.7,2.8c1.3,2.1,3.2,3.2,5.3,3.3c0,0,0,0,0.1,0c2.1,0,4.1-1.2,5.4-3.2
			c3.7-5.8,13.4-21.1,21.9-37.4c10-19.4,15.1-33.7,15.1-42.6C109.4,20.1,90.4,0,67,0L67,0z"/>
	</g>
	<path class="st1" d="M82.9,43.6H71.1v4.2h11.8c1.2,0,2.1-0.9,2.1-2.1C85,44.5,84,43.6,82.9,43.6z"/>
	<path class="st1" d="M67,27.8c-1.2,0-2.1,0.9-2.1,2.1v13.8H51.2c-1.2,0-2.1,0.9-2.1,2.1c0,1.2,0.9,2.1,2.1,2.1H65v13.8
		c0,1.2,0.9,2.1,2.1,2.1s2.1-0.9,2.1-2.1V29.9C69.1,28.7,68.2,27.8,67,27.8z"/>
</g>
<g id="A">
	<g>
		<path class="st1" d="M-102.8,0c-23.4,0-42.4,20.2-42.4,45c0,8.3,4.6,21.5,13.7,39.3c7.5,14.8,16.3,29.1,21.6,37.7
			c0.6,1,1.2,1.9,1.7,2.8c1.3,2.1,3.2,3.2,5.3,3.3c0,0,0,0,0.1,0c2.1,0,4.1-1.2,5.4-3.2c3.7-5.8,13.4-21.1,21.9-37.4
			c9.9-19.4,15.1-33.7,15.1-42.6C-60.4,20.1-79.5,0-102.8,0z"/>
	</g>
</g>
</svg>
