<?xml version="1.0" encoding="utf-8"?>
<!-- Generator: Adobe Illustrator 20.0.0, SVG Export Plug-In . SVG Version: 6.00 Build 0)  -->
<svg version="1.1" id="Layer_1" xmlns="http://www.w3.org/2000/svg" xmlns:xlink="http://www.w3.org/1999/xlink" x="0px" y="0px"
	 viewBox="0 0 128 128" style="enable-background:new 0 0 128 128;" xml:space="preserve">
<style type="text/css">
	.st0{fill:#9E3242;}
</style>
<g id="A">
	<g>
		<path class="st0" d="M64.2,0C40.8,0,21.8,20.2,21.8,45c0,8.3,4.6,21.5,13.7,39.3C43,99.1,51.8,113.4,57.1,122
			c0.6,1,1.2,1.9,1.7,2.8c1.3,2.1,3.2,3.2,5.3,3.3c0,0,0,0,0.1,0c2.1,0,4.1-1.2,5.4-3.2c3.7-5.8,13.4-21.1,21.9-37.4
			c9.9-19.4,15.1-33.7,15.1-42.6C106.6,20.1,87.5,0,64.2,0z"/>
	</g>
</g>
</svg>
